<?xml version="1.0"?>
<svg width="26.659676" height="26.671011000000004" xmlns="http://www.w3.org/2000/svg" xmlns:svg="http://www.w3.org/2000/svg">

 <metadata id="metadata7">image/svg+xml</metadata>
 <g>
  <title>Layer 1</title>
  <g id="layer1">
   <path fill="none" stroke="#4b2e4c" stroke-width="1.8" stroke-linecap="round" stroke-linejoin="round" stroke-miterlimit="4" id="path3050" d="m14.207214,8.807953l-4.825684,1.742706l-6.276917,-1.770477c-0.604919,7.450348 -1.212219,12.829926 -2.204651,16.405884l8.335327,0.584961l8.773987,-2.485992l7.750366,1.901031c-0.903687,-5.190643 -0.681396,-10.437195 -1.901001,-17.109283"/>
   <path fill="#4b2e4c" stroke="#4b2e4c" stroke-width="1.6" stroke-linecap="round" stroke-linejoin="round" stroke-miterlimit="4" id="path3860" d="m19.074707,12.31665l-3.258057,-6.035919l3.508728,1.796051l2.965576,-1.628448l-3.216248,5.868317z"/>
   <path fill="none" stroke="#4b2e4c" stroke-width="2.700066" stroke-linecap="round" stroke-linejoin="round" stroke-miterlimit="4" d="m22.388062,4.559695c0,1.848882 -1.469429,3.347681 -3.282038,3.347681c-1.812607,0 -3.282037,-1.498798 -3.282037,-3.347681c0,-1.848882 1.46943,-3.347708 3.282037,-3.347708c1.812609,0 3.282038,1.498826 3.282038,3.347708z" id="path3862"/>
   <path fill="#4b2e4c" fill-opacity="0.47" fill-rule="nonzero" id="path3864" d="m5.206116,12.132813c-0.450073,5.07547 -0.900146,9.347443 -1.350281,10.651947c2.245178,-0.134186 4.329224,0.214783 6.376221,0.67514c2.326965,-1.491119 4.749329,-2.409576 7.276306,-2.7005c2.122131,0.17749 3.854004,0.647675 5.175964,1.425262c-0.089233,-3.822235 0.350037,-8.701538 -0.450073,-11.102051c-1.05542,1.966034 -2.212463,3.261719 -3.075562,4.650848c-1.677429,-2.311066 -3.022766,-2.98938 -3.900757,-5.100922c-1.710388,0.87204 -1.648071,0.293701 -5.325928,2.775513c-2.788269,-1.3685 -3.678101,-1.260437 -4.725891,-1.275238z"/>
   <path fill="#4b2e4c" id="path3879" d="m12.107361,12.05777l1.472595,1.588318l2.002625,-0.495422l1.327332,2.373016l2.323792,0.359802c0,0 -3.825745,-5.250977 -4.275818,-5.250977c-0.450073,0 -2.850525,1.425262 -2.850525,1.425262z"/>
   <path fill="#4b2e4c" id="path3881" d="m22.084229,11.157623l-2.7005,4.425812l0.300049,1.125214l1.425293,0.150024l-0.450134,1.425262l0.750183,1.800323l-2.175415,-0.150024l-2.325439,-1.725311l-1.950378,0.300049l-1.35022,3.300629l3.825684,-1.125214l5.250977,1.425262l-0.075012,-8.626587l-0.525085,-2.325439z"/>
   <path fill="#4b2e4c" id="path3883" d="m3.930847,22.559723l0.825195,-0.975159l1.275208,0.450073l2.475464,-4.125763l1.500305,-0.600128l1.275208,1.125214l-0.600098,0.750153l0.600098,0.750122l0.075012,1.35025l0.67511,1.125214l-1.800293,1.050201l-6.301208,-0.900177z"/>
   <path fill="#4b2e4c" id="path3885" d="m5.131104,11.982788l0,1.650299l0.900146,0.300049l0.825134,-0.900177l-0.375061,-0.67511l-1.35022,-0.375061z"/>
   <path fill="#4b2e4c" id="path3887" d="m11.807312,13.483063l-0.300049,0.825134l0.825134,0.750153l0.600159,-0.975189l-1.125244,-0.600098z"/>
   <path fill="#4b2e4c" id="path3889" d="m6.856384,13.708099l-0.375061,1.200226l-0.300049,1.275238l0.525146,1.050171l1.275208,-0.975159l1.050171,0.600098l1.200256,-0.075012l1.050171,0.750122l0.750122,-0.975159l-0.450073,-0.750122l-1.425232,-0.600128l0,-1.125214l-1.725342,-0.825134l-1.575317,0.450073z"/>
  </g>
 </g>
</svg>